<svg width="561" height="484" viewBox="0 0 561 484" fill="none" xmlns="http://www.w3.org/2000/svg">
<path d="M467.026 263.754C457.784 263.754 450.295 271.245 450.295 280.485V450.269H110.72V280.485C110.72 271.245 103.231 263.754 93.9888 263.754C84.7466 263.754 77.2578 271.245 77.2578 280.485V467C77.2578 476.24 84.7466 483.731 93.9888 483.731H467.026C476.268 483.731 483.757 476.24 483.757 467V280.485C483.757 271.245 476.266 263.754 467.026 263.754Z" fill="#D9E0E0"/>
<path d="M556.099 268.654L292.313 4.89968C285.781 -1.63434 275.187 -1.63211 268.653 4.89968L4.90052 268.654C-1.63351 275.188 -1.63351 285.783 4.90052 292.314C8.16865 295.58 12.4518 297.215 16.7327 297.215C21.0159 297.215 25.2968 295.582 28.5649 292.314L280.487 40.3896L532.441 292.314C538.973 298.848 549.567 298.846 556.103 292.312C562.633 285.78 562.633 275.186 556.099 268.654Z" fill="#D9E0E0"/>
</svg>
