<svg width="493" height="493" viewBox="0 0 493 493" fill="none" xmlns="http://www.w3.org/2000/svg">
<path d="M492.992 236.522C491.518 172.031 465.055 111.93 418.474 67.2945C371.962 22.7234 310.907 -1.14948 246.496 0.0428476C182.09 -1.15324 121.034 22.7271 74.5218 67.2945C27.9414 111.93 1.47832 172.031 0.00376141 236.522L0 236.725V236.928C0.338547 302.657 28.4793 365.143 77.3468 408.939V468.529C77.3468 480.095 85.423 490.172 96.5499 492.488C98.1975 492.831 99.8564 493 101.504 493C105.984 493 110.385 491.748 114.256 489.329L162.153 459.412C189.165 468.868 217.359 473.66 246.015 473.66H246.368C247.956 473.69 249.528 473.705 251.108 473.705C313.803 473.701 373.075 449.915 418.474 406.412C465.055 361.776 491.518 301.675 492.992 237.184L493 236.853L492.992 236.522ZM398.466 385.536C357.449 424.838 303.556 445.867 246.782 444.75L246.47 444.747C219.819 444.769 193.585 440.169 168.548 430.988C162.356 428.716 155.611 429.408 150.037 432.887L106.262 460.232V405.419C106.262 399.306 103.603 393.488 98.9649 389.456C54.7995 351.064 29.2768 295.499 28.9195 236.981C30.2661 180.268 53.5619 127.43 94.5299 88.1734C135.543 48.868 189.447 27.865 246.214 28.9596L246.496 28.9671L246.782 28.9596C303.579 27.8425 357.449 48.8643 398.466 88.1696C439.4 127.396 462.693 180.189 464.073 236.853C462.693 293.517 439.4 346.31 398.466 385.536Z" fill="#D9E0E0"/>
<path d="M286.157 302.489V202.582C286.157 187.926 274.221 176 259.553 176H210.608C195.936 176 184 187.926 184 202.582V227.733C184 240.792 193.471 251.679 205.912 253.901V303.099C193.471 305.321 184 316.208 184 329.267V354.418C184 369.074 195.936 381 210.608 381H282.392C297.064 381 309 369.074 309 354.418V329.267C309 315.654 299.05 304.353 286.157 302.489ZM280.025 352.053H212.975V331.632H217.316C227.002 331.632 234.883 323.758 234.883 314.08V242.924C234.883 233.246 227.002 225.372 217.316 225.372H212.975V204.951H257.186V313.613C257.186 323.291 265.067 331.165 274.753 331.165H280.025V352.053Z" fill="#D9E0E0"/>
<path d="M244.002 168C267.159 168 286 149.159 286 126.002C286 102.841 267.159 84 244.002 84C220.841 84 202 102.841 202 126.002C202 149.159 220.841 168 244.002 168ZM244.002 112.902C251.221 112.902 257.098 118.779 257.098 126.002C257.098 133.225 251.221 139.098 244.002 139.098C236.779 139.098 230.902 133.225 230.902 126.002C230.902 118.779 236.779 112.902 244.002 112.902Z" fill="#D9E0E0"/>
</svg>
