<svg width="512" height="512" viewBox="0 0 512 512" fill="none" xmlns="http://www.w3.org/2000/svg">
<path d="M511.66 246.189L511.668 245.845L511.66 245.505C510.133 178.56 482.664 116.181 434.32 69.8492C386.047 23.5875 322.68 -1.19766 255.832 0.0445258C188.984 -1.16251 125.617 23.5875 77.3438 69.8492C29 116.181 1.53125 178.56 0.00390601 245.502L0 245.712V245.923C0.351562 314.15 29.5586 379.005 80.2734 424.466V486.322C80.2734 498.326 88.6562 508.783 100.207 511.185C101.914 511.541 103.637 511.716 105.348 511.716C109.996 511.716 114.566 510.42 118.582 507.908L168.293 476.853C196.328 486.67 225.59 491.646 255.328 491.646C255.453 491.646 255.574 491.642 255.699 491.642C286.113 492.228 315.816 487.423 344.16 477.396C361.5 498.509 387.797 512.002 417.188 512.002C469.281 512.002 511.664 469.619 511.664 417.525C511.664 392.267 501.699 369.291 485.496 352.322C501.805 319.505 510.82 283.06 511.66 246.189ZM256.129 461.634L255.801 461.63C228.145 461.716 200.914 456.884 174.934 447.353C168.504 444.994 161.504 445.712 155.719 449.326L110.289 477.705V420.814C110.289 414.466 107.527 408.427 102.715 404.244C56.875 364.392 30.3867 306.716 30.0117 245.982C31.4102 187.111 55.5898 132.267 98.1094 91.5211C140.676 50.7242 196.621 28.9195 255.535 30.0602L255.832 30.0641L256.129 30.0602C315.074 28.9117 370.988 50.7242 413.555 91.5211C456.043 132.236 480.215 187.033 481.648 245.849C480.906 276.318 473.812 306.427 461.051 333.869C447.934 326.966 433.012 323.048 417.188 323.048C365.094 323.048 322.711 365.431 322.711 417.525C322.711 429.279 324.871 440.533 328.812 450.92C305.441 458.513 281.055 462.119 256.129 461.634ZM417.188 481.99C381.641 481.99 352.723 453.072 352.723 417.525C352.723 381.978 381.641 353.06 417.188 353.06C452.734 353.06 481.652 381.978 481.652 417.525C481.652 453.072 452.734 481.99 417.188 481.99Z" fill="#D9E0E0"/>
<path d="M145.891 204.189H365.773C374.062 204.189 380.781 197.471 380.781 189.182C380.781 180.896 374.062 174.178 365.773 174.178H145.891C137.602 174.178 130.883 180.896 130.883 189.182C130.883 197.471 137.602 204.189 145.891 204.189Z" fill="#D9E0E0"/>
<path d="M380.781 255.561C380.781 247.275 374.062 240.557 365.773 240.557H145.891C137.602 240.557 130.883 247.275 130.883 255.561C130.883 263.85 137.602 270.568 145.891 270.568H365.773C374.062 270.568 380.781 263.85 380.781 255.561Z" fill="#D9E0E0"/>
<path d="M223.988 306.936H145.891C137.602 306.936 130.883 313.654 130.883 321.939C130.883 330.229 137.602 336.947 145.891 336.947H223.988C232.277 336.947 238.996 330.229 238.996 321.939C238.996 313.654 232.277 306.936 223.988 306.936Z" fill="#D9E0E0"/>
<path d="M417.188 375.877C408.898 375.877 402.18 382.596 402.18 390.885V442.975C402.18 451.26 408.898 457.979 417.188 457.979C425.477 457.979 432.195 451.26 432.195 442.975V390.885C432.195 382.596 425.477 375.877 417.188 375.877Z" fill="#D9E0E0"/>
</svg>
